<svg xmlns="http://www.w3.org/2000/svg" width="256" height="256" version="1.0" viewBox="0 0 192 192"><path d="M11.5 1.9c-4.8 2.2-7.9 5.4-10 10.3C.2 15.5 0 26 0 96.2c0 75.9.1 80.5 1.9 84.3 2.2 4.8 5.4 7.9 10.3 10 3.3 1.3 13.8 1.5 84 1.5 75.9 0 80.5-.1 84.3-1.9 4.8-2.2 7.9-5.4 10-10.3 1.3-3.3 1.5-13.8 1.5-83.8s-.2-80.5-1.5-83.8c-2.1-4.9-5.2-8.1-10-10.3C176.7.1 172.2 0 96 0S15.3.1 11.5 1.9zm71.9 92.6c8.6 23 16.4 42.7 17.3 43.7.9 1 2.2 1.8 3 1.8.7 0 1.3.4 1.3 1 0 1.3-18.7 1.4-19.4.1-.3-.5.3-1.1 1.4-1.4 1.1-.3 2-1.3 2-2.3 0-1-2.8-9.4-6.2-18.6l-6.3-16.9-11.9.3-11.8.3-5.9 16c-6.1 16.8-6.8 20.2-4.4 21.1 3.4 1.4 1.1 2.4-5.4 2.4-6.7 0-10.1-1.2-6.2-2.3 1-.2 2.6-1.5 3.4-2.8.9-1.3 8.4-20.6 16.7-42.9 15.2-40.5 15.9-42.4 16.5-41.8.2.2 7.4 19.2 15.9 42.3zm64.4-39.9c17.3 5.8 20.3 26.7 5.3 37.4-4.9 3.4-13.5 6-20.1 6h-6v19c0 19 0 19.1 2.5 21.6 1.4 1.4 2.5 2.7 2.5 2.9 0 .7-17.6.6-18.2-.1-.3-.3.5-1.6 1.8-2.9l2.4-2.4V57.9l-2.5-2.5c-1.4-1.4-2.5-2.8-2.5-3.1 0-.3 6.6-.3 14.8 0 10.2.3 16.3 1 20 2.3z"/><path d="M59.6 83.1c-2.7 7.1-4.6 13.2-4.4 13.5.3.2 4.8.3 10.1.2l9.5-.3L70 83.7c-2.7-7.1-5-13-5.2-13.2-.2-.2-2.6 5.4-5.2 12.6zM127 75.5v18.8l5.8-.7c3.1-.3 8.1-1.9 11.1-3.4 9.8-4.9 12.7-15.4 6.8-24.4-2.9-4.3-9.7-7.6-17.5-8.4l-6.2-.7v18.8z"/></svg>