<svg width="32" height="30" viewBox="0 0 32 30" fill="none" xmlns="http://www.w3.org/2000/svg">
<path d="M5.5606 0C2.07612 0 0 1.88672 0 5.25V24.75C0 28.1133 1.95471 30 5.43919 30H25.6419C29.1264 30 31.0811 28.1133 31.0811 24.75V15.0293V5.25C31.0811 1.88672 29.436 0 25.9515 0H5.5606ZM4.78964 1.5H26.2914C28.0944 1.5 29.527 2.88281 29.527 4.62305V25.377C29.527 27.1172 28.0944 28.5 26.2914 28.5H4.78964C2.9867 28.5 1.55405 27.1172 1.55405 25.377V4.62305C1.55405 2.88281 2.9867 1.5 4.78964 1.5ZM15.1035 9.3457C13.9622 9.33398 12.9909 9.3457 12.4446 9.60352C12.0803 9.77344 11.8011 10.1602 11.9711 10.1777C12.1835 10.207 12.6631 10.3066 12.9181 10.6406C13.2459 11.0684 13.2337 12.0352 13.2337 12.0352C13.2337 12.0352 13.4159 14.6953 12.7906 15.0293C12.3596 15.2578 11.7707 14.7949 10.4959 12.6797C9.84639 11.5898 9.35468 10.3887 9.35468 10.3887C9.35468 10.3887 9.26362 10.166 9.09365 10.0488C8.88725 9.90234 8.60193 9.85547 8.60193 9.85547L5.5606 9.87305C5.5606 9.87305 5.10531 9.89062 4.94141 10.0781C4.78964 10.2539 4.92927 10.5996 4.92927 10.5996C4.92927 10.5996 7.30891 15.9727 10.0042 18.6797C12.4749 21.1641 15.2795 21 15.2795 21H16.5543C16.5543 21 16.9368 20.959 17.131 20.7598C17.3131 20.5723 17.3071 20.2207 17.3071 20.2207C17.3071 20.2207 17.2828 18.5742 18.0719 18.3281C18.855 18.0938 19.8506 19.9219 20.913 20.625C21.7203 21.1582 22.3335 21.041 22.3335 21.041L25.1745 21C25.1745 21 26.6557 20.9121 25.9515 19.7812C25.8969 19.6934 25.5448 18.9492 23.845 17.4258C22.0603 15.832 22.297 16.0898 24.446 13.3301C25.7512 11.6484 26.2732 10.623 26.1093 10.1777C25.9515 9.76172 24.9923 9.87305 24.9923 9.87305L21.7932 9.89062C21.7932 9.89062 21.5564 9.86133 21.3804 9.96094C21.2104 10.0605 21.1011 10.2949 21.1011 10.2949C21.1011 10.2949 20.5912 11.5957 19.9174 12.7031C18.4969 15.0352 17.9202 15.1641 17.6895 15.0176C17.1492 14.6777 17.2828 13.6582 17.2828 12.9375C17.2828 10.6699 17.6409 9.73242 16.5907 9.48633C16.2447 9.4043 15.9898 9.35156 15.1035 9.3457Z" fill="black"/>
</svg>
