<svg width="31" height="30" viewBox="0 0 31 30" fill="none" xmlns="http://www.w3.org/2000/svg">
<path d="M15.6136 0C12.9877 0.000680557 10.408 0.690553 8.13225 2.00067C5.85652 3.31078 3.96451 5.19525 2.64531 7.46573C1.32611 9.7362 0.625935 12.3132 0.61476 14.939C0.603585 17.5649 1.2818 20.1477 2.58163 22.4293L1.23106 27.1565C1.1429 27.4651 1.13887 27.7917 1.2194 28.1024C1.29992 28.4131 1.46207 28.6967 1.68904 28.9236C1.91601 29.1506 2.19954 29.3127 2.51025 29.3932C2.82096 29.4737 3.14754 29.4696 3.45616 29.3815L8.18333 28.031C10.1791 29.1688 12.4095 29.833 14.7026 29.9724C16.9957 30.1117 19.2902 29.7225 21.4091 28.8348C23.5279 27.947 25.4146 26.5844 26.9235 24.8521C28.4324 23.1198 29.5232 21.064 30.1118 18.8434C30.7005 16.6227 30.7712 14.2966 30.3185 12.0443C29.8658 9.79199 28.9018 7.67378 27.5009 5.85302C26.1 4.03226 24.2996 2.5576 22.2386 1.5428C20.1775 0.527993 17.9109 0.000156588 15.6136 0ZM15.6136 28.798C13.1353 28.7997 10.7024 28.133 8.57119 26.8681C8.50094 26.8263 8.42286 26.7992 8.34177 26.7887C8.26068 26.7782 8.1783 26.7844 8.09969 26.8069L3.12644 28.2278C3.02357 28.2572 2.9147 28.2585 2.81113 28.2317C2.70756 28.2049 2.61306 28.1508 2.53741 28.0751C2.46176 27.9995 2.40773 27.905 2.3809 27.8014C2.35407 27.6978 2.35544 27.5889 2.38484 27.4861L3.80564 22.513C3.8281 22.4344 3.83425 22.352 3.82372 22.2709C3.81319 22.1898 3.7862 22.1117 3.74442 22.0415C2.19017 19.4229 1.54559 16.3639 1.91109 13.3408C2.2766 10.3178 3.63167 7.5005 5.76521 5.32785C7.89875 3.1552 10.691 1.74918 13.7069 1.32882C16.7228 0.908459 19.793 1.49737 22.4394 3.0038C25.0857 4.51023 27.1595 6.8496 28.3377 9.65748C29.516 12.4654 29.7324 15.5841 28.9535 18.5278C28.1745 21.4716 26.4438 24.075 24.0309 25.9326C21.6181 27.7902 18.6587 28.7977 15.6136 28.798ZM23.1898 17.7802L20.1211 16.0267C19.8434 15.8682 19.5286 15.7865 19.2089 15.7899C18.8893 15.7933 18.5763 15.8817 18.3021 16.046L16.2312 17.2885C14.9776 16.6534 13.9592 15.6349 13.3241 14.3813L14.5665 12.3105C14.7308 12.0362 14.8192 11.7233 14.8226 11.4036C14.826 11.084 14.7443 10.7692 14.5859 10.4915L12.8324 7.42273C12.6892 7.1729 12.4826 6.96524 12.2336 6.82072C11.9845 6.67619 11.7018 6.5999 11.4138 6.59955C10.1441 6.59986 8.92612 7.10319 8.02659 7.99938C7.12706 8.89556 6.61919 10.1116 6.61415 11.3814C6.61182 13.0374 6.93598 14.6776 7.56809 16.2083C8.2002 17.7389 9.12786 19.1299 10.298 20.3018C11.4682 21.4736 12.8579 22.4032 14.3876 23.0375C15.9173 23.6718 17.5571 23.9983 19.2131 23.9984H19.2312C20.5009 23.9933 21.7169 23.4854 22.6131 22.5859C23.5093 21.6864 24.0126 20.4685 24.013 19.1987C24.0126 18.9108 23.9364 18.628 23.7918 18.3789C23.6473 18.1299 23.4396 17.9234 23.1898 17.7802ZM19.2295 22.7985H19.2132C17.7149 22.7985 16.2313 22.5031 14.8472 21.9292C13.4632 21.3553 12.2058 20.5142 11.1471 19.454C10.0884 18.3938 9.24904 17.1352 8.67713 15.7504C8.10522 14.3655 7.81194 12.8814 7.81406 11.3831C7.81821 10.4312 8.19931 9.51961 8.87396 8.84798C9.54861 8.17635 10.4619 7.79934 11.4138 7.79947C11.4903 7.79957 11.5654 7.81982 11.6315 7.85819C11.6977 7.89655 11.7525 7.95168 11.7906 8.01801L13.5441 11.0869C13.5969 11.1795 13.6241 11.2844 13.623 11.391C13.6218 11.4975 13.5924 11.6018 13.5376 11.6932L12.1293 14.0403C12.0795 14.1233 12.0506 14.2171 12.0449 14.3136C12.0392 14.4102 12.0569 14.5068 12.0966 14.595C12.8797 16.3378 14.2748 17.7329 16.0176 18.516C16.1058 18.5557 16.2024 18.5735 16.299 18.5677C16.3956 18.562 16.4894 18.533 16.5724 18.4832L18.9193 17.075C19.0107 17.0202 19.1151 16.9907 19.2216 16.9896C19.3282 16.9884 19.4331 17.0156 19.5257 17.0684L22.5946 18.8221C22.6609 18.8601 22.716 18.915 22.7544 18.9811C22.7927 19.0472 22.813 19.1223 22.813 19.1987C22.8132 20.1506 22.4362 21.0639 21.7645 21.7385C21.0929 22.4132 20.1814 22.7943 19.2295 22.7985Z" fill="black"/>
</svg>
