<svg width="32" height="30" viewBox="0 0 32 30" fill="none" xmlns="http://www.w3.org/2000/svg">
<path d="M9.94879 0C4.88575 0 0.765747 3.97669 0.765747 8.86364V21.1364C0.765747 26.0233 4.88575 30 9.94879 30H22.6638C27.7268 30 31.8468 26.0233 31.8468 21.1364V8.86364C31.8468 3.97669 27.7268 0 22.6638 0H9.94879ZM9.94879 1.36364H22.6638C26.9632 1.36364 30.4341 4.71376 30.4341 8.86364V21.1364C30.4341 25.2862 26.9632 28.6364 22.6638 28.6364H9.94879C5.64937 28.6364 2.17852 25.2862 2.17852 21.1364V8.86364C2.17852 4.71376 5.64937 1.36364 9.94879 1.36364ZM24.7829 5.45455C24.4083 5.45455 24.0489 5.59821 23.784 5.85395C23.519 6.10968 23.3702 6.45652 23.3702 6.81818C23.3702 7.17984 23.519 7.52669 23.784 7.78242C24.0489 8.03815 24.4083 8.18182 24.7829 8.18182C25.1576 8.18182 25.517 8.03815 25.7819 7.78242C26.0469 7.52669 26.1957 7.17984 26.1957 6.81818C26.1957 6.45652 26.0469 6.10968 25.7819 5.85395C25.517 5.59821 25.1576 5.45455 24.7829 5.45455ZM16.3063 7.5C12.0233 7.5 8.53602 10.8659 8.53602 15C8.53602 19.1341 12.0233 22.5 16.3063 22.5C20.5893 22.5 24.0766 19.1341 24.0766 15C24.0766 10.8659 20.5893 7.5 16.3063 7.5ZM16.3063 8.86364C19.8258 8.86364 22.6638 11.6029 22.6638 15C22.6638 18.3971 19.8258 21.1364 16.3063 21.1364C12.7868 21.1364 9.94879 18.3971 9.94879 15C9.94879 11.6029 12.7868 8.86364 16.3063 8.86364Z" fill="black"/>
</svg>
